<?xml version="1.0" encoding="UTF-8"?>
<svg width="127px" height="147px" viewBox="0 0 127 147" version="1.1" xmlns="http://www.w3.org/2000/svg" xmlns:xlink="http://www.w3.org/1999/xlink">
    <!-- Generator: Sketch 53.2 (72643) - https://sketchapp.com -->
    <title>Shield</title>
    <desc>Created with Sketch.</desc>
    <g id="Page-1" stroke="none" stroke-width="1" fill="none" fill-rule="evenodd">
        <g id="02+_Shield_Reverse-(2)" fill-rule="nonzero">
            <g id="Shield">
                <path d="M115.9512,84.7491 L10.8272,84.7491 C4.8472,84.7491 0.000200000001,79.9021 0.000200000001,73.9221 L0.000200000001,10.8271 C0.000200000001,4.8471 4.8472,9.99999992e-05 10.8272,9.99999992e-05 L115.9512,9.99999992e-05 C121.9302,9.99999992e-05 126.7772,4.8471 126.7772,10.8271 L126.7772,73.9221 C126.7772,79.9021 121.9302,84.7491 115.9512,84.7491" id="Center" fill="#65DFFF"></path>
                <path d="M120.4268,-3.05533376e-13 L62.6578,-3.05533376e-13 L126.7778,36.622 L126.7778,6.35 C126.7778,2.843 123.9348,-3.05533376e-13 120.4268,-3.05533376e-13" id="Top-Right" fill="#00C2FF"></path>
                <path d="M5.248,-3.05533376e-13 L64.12,-3.05533376e-13 L1.30739863e-12,36.622 L1.30739863e-12,5.248 C1.30739863e-12,2.349 2.35,-3.05533376e-13 5.248,-3.05533376e-13" id="Top-Left" fill="#0093FF"></path>
                <path d="M0.0005,36.8433 L0.0005,94.9873 C0.0005,99.3613 0.0005,112.3553 21.7435,122.8373 C39.2705,131.2873 63.5185,147.0003 63.5185,147.0003 L63.5185,73.0003 L0.0005,36.8433 Z" id="Bottom-Left" fill="#00C2FF"></path>
                <path d="M126.7773,36.8433 L126.7773,94.9873 C126.7773,99.3613 126.7773,112.3553 105.0353,122.8373 C87.5063,131.2873 63.2593,147.0003 63.2593,147.0003 L63.2593,73.0003 L126.7773,36.8433 Z" id="Bottom-Right" fill="#0093FF"></path>
            </g>
        </g>
    </g>
</svg>